HIERARCHY
ROOT Root
{
  OFFSET 0.0 0.0 0.0
  CHANNELS 6 Xposition Yposition Zposition Zrotation Yrotation Xrotation
  JOINT Hips
  {
    OFFSET 0.0 100.0 0.0
    CHANNELS 6 Xposition Yposition Zposition Zrotation Yrotation Xrotation
    JOINT Spine1
    {
      OFFSET 5.003913 -0.037094 -0.013727
      CHANNELS 3 Zrotation Yrotation Xrotation
      JOINT Spine2
      {
        OFFSET 7.125363 -1e-06 0.0
        CHANNELS 3 Zrotation Yrotation Xrotation
        JOINT Chest
        {
          OFFSET 7.594027 1e-06 0.0
          CHANNELS 3 Zrotation Yrotation Xrotation
          JOINT Neck1
          {
            OFFSET 26.313086 -0.460272 -0.181672
            CHANNELS 3 Zrotation Yrotation Xrotation
            JOINT Neck2
            {
              OFFSET 8.045911 0.0 0.0
              CHANNELS 3 Zrotation Yrotation Xrotation
              JOINT Head
              {
                OFFSET 6.432774 0.0 0.0
                CHANNELS 3 Zrotation Yrotation Xrotation
                JOINT HeadEnd
                {
                  OFFSET 16.169773 0.06451 0.00362
                  CHANNELS 3 Zrotation Yrotation Xrotation
                }
                JOINT Jaw
                {
                  OFFSET 0.108741 3.12938 0.002639
                  CHANNELS 3 Zrotation Yrotation Xrotation
                }
                JOINT LeftEye
                {
                  OFFSET 4.45173 8.166359 3.206392
                  CHANNELS 3 Zrotation Yrotation Xrotation
                }
                JOINT RightEye
                {
                  OFFSET 4.436895 8.135758 -3.222429
                  CHANNELS 3 Zrotation Yrotation Xrotation
                }
              }
            }
          }
          JOINT LeftShoulder
          {
            OFFSET 23.218927 5.195579 1.621656
            CHANNELS 3 Zrotation Yrotation Xrotation
            JOINT LeftArm
            {
              OFFSET 15.902118 2e-06 -2e-06
              CHANNELS 3 Zrotation Yrotation Xrotation
              JOINT LeftForeArm
              {
                OFFSET 28.739307 0.0 -1e-06
                CHANNELS 3 Zrotation Yrotation Xrotation
                JOINT LeftHand
                {
                  OFFSET 27.093981 -4e-06 0.0
                  CHANNELS 3 Zrotation Yrotation Xrotation
                  JOINT LeftHandThumb1
                  {
                    OFFSET 2.276781 3.380274 0.83384
                    CHANNELS 3 Zrotation Yrotation Xrotation
                    JOINT LeftHandThumb2
                    {
                      OFFSET 4.705309 -1e-06 -1e-06
                      CHANNELS 3 Zrotation Yrotation Xrotation
                      JOINT LeftHandThumb3
                      {
                        OFFSET 2.798515 0.0 3e-06
                        CHANNELS 3 Zrotation Yrotation Xrotation
                        JOINT LeftHandThumbEnd
                        {
                          OFFSET 3.180793 4e-06 -4e-06
                          CHANNELS 3 Zrotation Yrotation Xrotation
                        }
                      }
                    }
                  }
                  JOINT LeftHandIndex1
                  {
                    OFFSET 3.247786 2.352677 0.137192
                    CHANNELS 3 Zrotation Yrotation Xrotation
                    JOINT LeftHandIndex2
                    {
                      OFFSET 6.367095 1e-06 0.0
                      CHANNELS 3 Zrotation Yrotation Xrotation
                      JOINT LeftHandIndex3
                      {
                        OFFSET 3.662364 0.0 0.0
                        CHANNELS 3 Zrotation Yrotation Xrotation
                        JOINT LeftHandIndex4
                        {
                          OFFSET 2.329242 4e-06 -4e-06
                          CHANNELS 3 Zrotation Yrotation Xrotation
                          JOINT LeftHandIndexEnd
                          {
                            OFFSET 2.767823 1e-06 0.0
                            CHANNELS 3 Zrotation Yrotation Xrotation
                          }
                        }
                      }
                    }
                  }
                  JOINT LeftHandMiddle1
                  {
                    OFFSET 3.163612 0.945023 -0.406112
                    CHANNELS 3 Zrotation Yrotation Xrotation
                    JOINT LeftHandMiddle2
                    {
                      OFFSET 6.276789 3e-06 0.0
                      CHANNELS 3 Zrotation Yrotation Xrotation
                      JOINT LeftHandMiddle3
                      {
                        OFFSET 4.35652 -1e-06 4e-06
                        CHANNELS 3 Zrotation Yrotation Xrotation
                        JOINT LeftHandMiddle4
                        {
                          OFFSET 2.996877 0.0 8e-06
                          CHANNELS 3 Zrotation Yrotation Xrotation
                          JOINT LeftHandMiddleEnd
                          {
                            OFFSET 2.323256 3e-06 -4e-06
                            CHANNELS 3 Zrotation Yrotation Xrotation
                          }
                        }
                      }
                    }
                  }
                  JOINT LeftHandRing1
                  {
                    OFFSET 2.882606 -0.309162 0.107445
                    CHANNELS 3 Zrotation Yrotation Xrotation
                    JOINT LeftHandRing2
                    {
                      OFFSET 6.033198 0.0 4e-06
                      CHANNELS 3 Zrotation Yrotation Xrotation
                      JOINT LeftHandRing3
                      {
                        OFFSET 4.350578 3e-06 0.0
                        CHANNELS 3 Zrotation Yrotation Xrotation
                        JOINT LeftHandRing4
                        {
                          OFFSET 2.651321 2e-06 -7e-06
                          CHANNELS 3 Zrotation Yrotation Xrotation
                          JOINT LeftHandRingEnd
                          {
                            OFFSET 1.937663 1e-06 -4e-06
                            CHANNELS 3 Zrotation Yrotation Xrotation
                          }
                        }
                      }
                    }
                  }
                  JOINT LeftHandPinky1
                  {
                    OFFSET 2.865315 -1.525436 0.575687
                    CHANNELS 3 Zrotation Yrotation Xrotation
                    JOINT LeftHandPinky2
                    {
                      OFFSET 5.54936 1e-06 -8e-06
                      CHANNELS 3 Zrotation Yrotation Xrotation
                      JOINT LeftHandPinky3
                      {
                        OFFSET 3.070974 0.0 -4e-06
                        CHANNELS 3 Zrotation Yrotation Xrotation
                        JOINT LeftHandPinky4
                        {
                          OFFSET 1.549672 1e-06 0.0
                          CHANNELS 3 Zrotation Yrotation Xrotation
                          JOINT LeftHandPinkyEnd
                          {
                            OFFSET 1.952123 0.0 0.0
                            CHANNELS 3 Zrotation Yrotation Xrotation
                          }
                        }
                      }
                    }
                  }
                }
              }
            }
          }
          JOINT RightShoulder
          {
            OFFSET 23.161716 5.296122 -1.380114
            CHANNELS 3 Zrotation Yrotation Xrotation
            JOINT RightArm
            {
              OFFSET -16.027195 -2e-06 1.1e-05
              CHANNELS 3 Zrotation Yrotation Xrotation
              JOINT RightForeArm
              {
                OFFSET -28.736639 4e-06 2e-06
                CHANNELS 3 Zrotation Yrotation Xrotation
                JOINT RightHand
                {
                  OFFSET -27.133619 6e-06 0.0
                  CHANNELS 3 Zrotation Yrotation Xrotation
                  JOINT RightHandThumb1
                  {
                    OFFSET -2.274328 -3.351035 -0.83067
                    CHANNELS 3 Zrotation Yrotation Xrotation
                    JOINT RightHandThumb2
                    {
                      OFFSET -4.703594 -3e-06 2e-06
                      CHANNELS 3 Zrotation Yrotation Xrotation
                      JOINT RightHandThumb3
                      {
                        OFFSET -2.794935 -4e-06 -3e-06
                        CHANNELS 3 Zrotation Yrotation Xrotation
                        JOINT RightHandThumbEnd
                        {
                          OFFSET -3.183852 4e-06 1e-06
                          CHANNELS 3 Zrotation Yrotation Xrotation
                        }
                      }
                    }
                  }
                  JOINT RightHandIndex1
                  {
                    OFFSET -3.253496 -2.33755 -0.127667
                    CHANNELS 3 Zrotation Yrotation Xrotation
                    JOINT RightHandIndex2
                    {
                      OFFSET -6.344434 0.0 0.0
                      CHANNELS 3 Zrotation Yrotation Xrotation
                      JOINT RightHandIndex3
                      {
                        OFFSET -3.654871 0.0 -8e-06
                        CHANNELS 3 Zrotation Yrotation Xrotation
                        JOINT RightHandIndex4
                        {
                          OFFSET -2.327586 -1e-06 0.0
                          CHANNELS 3 Zrotation Yrotation Xrotation
                          JOINT RightHandIndexEnd
                          {
                            OFFSET -2.770001 3e-06 8e-06
                            CHANNELS 3 Zrotation Yrotation Xrotation
                          }
                        }
                      }
                    }
                  }
                  JOINT RightHandMiddle1
                  {
                    OFFSET -3.168223 -0.944764 0.411762
                    CHANNELS 3 Zrotation Yrotation Xrotation
                    JOINT RightHandMiddle2
                    {
                      OFFSET -6.266691 -1e-06 -4e-06
                      CHANNELS 3 Zrotation Yrotation Xrotation
                      JOINT RightHandMiddle3
                      {
                        OFFSET -4.348901 0.0 0.0
                        CHANNELS 3 Zrotation Yrotation Xrotation
                        JOINT RightHandMiddle4
                        {
                          OFFSET -3.00024 2e-06 -4e-06
                          CHANNELS 3 Zrotation Yrotation Xrotation
                          JOINT RightHandMiddleEnd
                          {
                            OFFSET -2.321477 -4e-06 -4e-06
                            CHANNELS 3 Zrotation Yrotation Xrotation
                          }
                        }
                      }
                    }
                  }
                  JOINT RightHandRing1
                  {
                    OFFSET -2.885654 0.293261 -0.119232
                    CHANNELS 3 Zrotation Yrotation Xrotation
                    JOINT RightHandRing2
                    {
                      OFFSET -6.032835 -1e-06 -4e-06
                      CHANNELS 3 Zrotation Yrotation Xrotation
                      JOINT RightHandRing3
                      {
                        OFFSET -4.33881 0.0 -4e-06
                        CHANNELS 3 Zrotation Yrotation Xrotation
                        JOINT RightHandRing4
                        {
                          OFFSET -2.654903 -4e-06 -4e-06
                          CHANNELS 3 Zrotation Yrotation Xrotation
                          JOINT RightHandRingEnd
                          {
                            OFFSET -1.935122 0.0 4e-06
                            CHANNELS 3 Zrotation Yrotation Xrotation
                          }
                        }
                      }
                    }
                  }
                  JOINT RightHandPinky1
                  {
                    OFFSET -2.866241 1.503904 -0.60527
                    CHANNELS 3 Zrotation Yrotation Xrotation
                    JOINT RightHandPinky2
                    {
                      OFFSET -5.553177 -2e-06 0.0
                      CHANNELS 3 Zrotation Yrotation Xrotation
                      JOINT RightHandPinky3
                      {
                        OFFSET -3.062664 -1e-06 -4e-06
                        CHANNELS 3 Zrotation Yrotation Xrotation
                        JOINT RightHandPinky4
                        {
                          OFFSET -1.546529 2e-06 4e-06
                          CHANNELS 3 Zrotation Yrotation Xrotation
                          JOINT RightHandPinkyEnd
                          {
                            OFFSET -1.952341 0.0 -4e-06
                            CHANNELS 3 Zrotation Yrotation Xrotation
                          }
                        }
                      }
                    }
                  }
                }
              }
            }
          }
        }
      }
    }
    JOINT LeftLeg
    {
      OFFSET -8.443107 2.567604 10.043214
      CHANNELS 3 Zrotation Yrotation Xrotation
      JOINT LeftShin
      {
        OFFSET 43.229198 1e-06 -1e-06
        CHANNELS 3 Zrotation Yrotation Xrotation
        JOINT LeftFoot
        {
          OFFSET 42.298611 1e-06 1e-06
          CHANNELS 3 Zrotation Yrotation Xrotation
          JOINT LeftToeBase
          {
            OFFSET 14.165858 1e-06 0.0
            CHANNELS 3 Zrotation Yrotation Xrotation
            JOINT LeftToeEnd
            {
              OFFSET 6.7141 -0.234461 0.0
              CHANNELS 3 Zrotation Yrotation Xrotation
            }
          }
        }
      }
    }
    JOINT RightLeg
    {
      OFFSET -8.303923 2.592729 -10.047278
      CHANNELS 3 Zrotation Yrotation Xrotation
      JOINT RightShin
      {
        OFFSET -43.369682 0.0 1e-06
        CHANNELS 3 Zrotation Yrotation Xrotation
        JOINT RightFoot
        {
          OFFSET -42.260784 4e-06 2e-06
          CHANNELS 3 Zrotation Yrotation Xrotation
          JOINT RightToeBase
          {
            OFFSET -14.222245 -2e-06 -1e-06
            CHANNELS 3 Zrotation Yrotation Xrotation
            JOINT RightToeEnd
            {
              OFFSET -6.660062 0.232574 -2e-06
              CHANNELS 3 Zrotation Yrotation Xrotation
            }
          }
        }
      }
    }
  }
}
MOTION
Frames: 5
Frame Time: 0.03333333333333333
0.0 0.0 0.0 0.0 -0.0 0.0 1.590062 100.197205 0.810997 90.996704 -0.01489 90.1455 -2.076206 0.056826 -0.085027 -11.556623 -0.509315 -0.086606 15.900067 -0.461361 -2.230936 16.800173 -1.217387 2.674597 -2.385871 -0.791152 0.627424 -25.310823 -0.072513 0.321933 5e-06 -0.0 0.0 -0.014047 0.015998 -0.011789 0.030367 0.10127 -0.002222 0.051645 -0.074196 -0.014955 -136.485825 -71.461945 153.242142 30.256645 -41.373253 25.702618 40.817314 0.518854 0.077934 1.118913 -2.988091 12.620302 17.636625 -26.322729 52.411194 -19.466665 -14.395597 29.410385 -1e-06 -8.77482 -2e-06 15.921454 -18.149097 6.18097 -0.609776 -1.795651 -3.88933 -4.807086 -11.046807 -2.93785 7e-06 -20.976011 -0.0 -5.019966 -25.033548 -4.031881 5e-06 0.0 -0.0 -10.634533 -5.68697 -3.565588 10.573275 -17.922947 -3.1139 3e-06 -13.821205 1e-06 -0.501776 -31.181488 -4.027011 -11.318732 -59.659817 7.016167 -13.982712 -7.150197 -2.875043 13.772727 -8.401491 -3.218242 0.347735 -34.21154 0.771653 -0.96303 -17.733362 2.621022 -0.0 1e-06 1e-06 -17.346413 -20.095213 -4.201784 21.757555 -1.638376 3.866427 1e-06 -6.338822 1e-06 -1.697589 -22.591738 -6.194005 -0.0 -4e-06 -2e-06 42.054707 -76.696793 154.916122 35.30167 -49.619469 13.272363 36.382927 0.072376 0.113824 1.319001 -9.357364 29.206812 22.182117 -20.375891 49.933311 -16.701809 -16.743528 28.476524 -3e-06 -12.690598 2e-06 16.150269 -17.834452 2.745163 -0.10592 -1.513855 -4.275878 -5.039039 -5.612869 -2.953556 4e-06 -11.02052 -2e-06 -6.111295 -15.895328 -3.840471 -0.0 -1e-06 -0.0 -10.283368 -5.680285 -4.34184 11.028292 -11.302402 -2.372631 -1.384269 -14.238575 -6.32012 -0.625435 -26.924179 -3.8276 -4.77859 -49.999569 -3.76149 -13.708519 -7.363472 -3.720941 18.141146 -14.052737 -3.242672 6e-06 -18.787266 1e-06 -0.429712 -8.456039 2.555504 -0.0 1e-06 0.0 -15.923532 -20.094477 -5.473585 30.419205 -7.190823 1.735926 3e-06 -8.162922 0.0 -1.861903 -22.861462 -6.167938 1e-06 -4e-06 -0.0 176.294144 -3.171512 -10.310222 11.886588 0.001057 0.009225 -76.52243 -2.38628 -6.351498 -6.158605 1.508626 2.109545 -1.0 1e-06 0.0 -4.47434 -5.753451 -7.342535 14.857718 -0.002082 -0.023753 -78.667625 -1.943112 -6.467481 -6.390701 0.815762 1.682057 -1.000002 0.0 0.0 
0.0 0.0 0.0 0.0 -0.0 0.0 1.580213 100.218796 0.806138 91.00898 -0.009767 90.154274 -2.061811 0.032114 -0.105739 -11.548176 -0.497346 -0.036024 15.893295 -0.445894 -2.267486 16.792416 -1.197382 2.676689 -2.371597 -0.788607 0.647227 -25.340376 -0.097506 0.323342 6e-06 -0.0 -0.0 -0.015962 0.014923 0.00363 0.042548 0.102924 0.016076 0.062175 -0.077917 -0.002583 -136.397079 -71.515045 153.246231 30.23884 -41.384251 25.536125 40.756931 0.426379 0.023825 1.216609 -3.118652 12.735309 17.636627 -26.322725 52.411186 -19.466665 -14.3956 29.410393 -1e-06 -8.774822 -1e-06 15.892604 -18.09561 6.15376 -0.609776 -1.795655 -3.889328 -4.807088 -11.046811 -2.937851 5e-06 -20.976019 0.0 -5.019969 -25.033562 -4.031882 6e-06 0.0 2e-06 -10.634534 -5.686971 -3.565589 10.573275 -17.922953 -3.113901 2e-06 -13.821211 -0.0 -0.501776 -31.181511 -4.027017 -11.241636 -59.590019 7.013427 -13.982714 -7.150196 -2.875043 13.772731 -8.401493 -3.218243 0.347737 -34.211552 0.771651 -0.963026 -17.733366 2.62102 -0.0 -0.0 0.0 -17.346416 -20.095217 -4.20178 21.757557 -1.638376 3.866426 2e-06 -6.338824 1e-06 -1.697589 -22.591742 -6.194006 -0.0 -4e-06 -2e-06 42.204685 -76.681213 154.898026 35.164558 -49.652405 13.291184 36.240185 0.041695 0.09146 1.439157 -9.479912 29.254396 22.182116 -20.375896 49.933319 -16.701813 -16.743532 28.476528 -4e-06 -12.690601 1e-06 16.10461 -17.853447 2.775893 -0.105919 -1.513856 -4.275882 -5.039041 -5.61287 -2.953557 4e-06 -11.02052 -1e-06 -6.111297 -15.89533 -3.840469 -0.0 1e-06 -0.0 -10.283371 -5.680287 -4.341837 11.028296 -11.302402 -2.372632 -1.38427 -14.238575 -6.32012 -0.625437 -26.924183 -3.827598 -4.830335 -50.068542 -3.692675 -13.708525 -7.363472 -3.720939 18.141148 -14.052736 -3.242674 6e-06 -18.787266 2e-06 -0.429711 -8.456041 2.555504 0.0 -0.0 1e-06 -15.923538 -20.094479 -5.473586 30.419214 -7.190826 1.735927 3e-06 -8.162925 2e-06 -1.861904 -22.861467 -6.167938 -1e-06 -4e-06 -1e-06 176.464066 -3.13208 -10.292018 11.538238 0.009703 0.052811 -76.373634 -2.355606 -6.447495 -6.201317 1.525778 2.114217 -0.999998 -0.0 -0.0 -4.372314 -5.738818 -7.296465 14.655344 -0.003836 -0.024886 -78.566933 -1.981618 -6.445101 -6.414715 0.797733 1.680109 -1.000001 0.0 0.0 
0.0 0.0 0.0 0.0 -0.0 0.0 1.573731 100.221657 0.792515 91.032043 -0.002175 90.149689 -2.062731 0.006797 -0.112527 -11.551113 -0.494925 -0.014342 15.93588 -0.430356 -2.27547 16.785124 -1.188035 2.702763 -2.397576 -0.771635 0.62219 -25.334898 -0.106586 0.324242 6e-06 -0.0 0.0 -0.019719 0.01415 0.00318 0.037599 0.102441 0.018968 0.058863 -0.079109 -0.006694 -136.364319 -71.562775 153.261108 30.135635 -41.370773 25.470665 40.730114 0.357563 -0.012779 1.231661 -3.282307 12.69317 17.636633 -26.322737 52.411205 -19.466658 -14.395596 29.410393 0.0 -8.774821 -2e-06 15.899525 -18.068211 6.134506 -0.609777 -1.795653 -3.889328 -4.80709 -11.04681 -2.937849 3e-06 -20.976019 1e-06 -5.019973 -25.03356 -4.03188 4e-06 -0.0 1e-06 -10.634534 -5.68697 -3.565589 10.573271 -17.922949 -3.113899 0.0 -13.821206 3e-06 -0.501779 -31.181505 -4.027013 -11.263226 -59.526405 7.026475 -13.982712 -7.150196 -2.875043 13.772727 -8.401491 -3.21824 0.347731 -34.211544 0.771657 -0.963031 -17.733366 2.621021 -0.0 1e-06 0.0 -17.346416 -20.095217 -4.201784 21.757557 -1.638374 3.866428 2e-06 -6.338824 1e-06 -1.69759 -22.591743 -6.194005 0.0 -4e-06 -3e-06 42.231079 -76.660538 154.966431 34.913666 -49.65765 13.430468 36.159813 0.014294 0.075902 1.473376 -9.591215 29.436937 22.182117 -20.375906 49.933331 -16.701817 -16.74353 28.476536 -3e-06 -12.690601 0.0 16.064331 -17.830647 2.799415 -0.10592 -1.513855 -4.275881 -5.039041 -5.612873 -2.953557 4e-06 -11.020525 -1e-06 -6.111297 -15.895334 -3.840472 -0.0 0.0 -1e-06 -10.283371 -5.680289 -4.34184 11.028296 -11.302406 -2.372633 -1.384268 -14.23858 -6.320122 -0.625436 -26.924192 -3.827601 -4.852354 -50.075935 -3.663564 -13.708526 -7.363476 -3.72094 18.141151 -14.05274 -3.242674 8e-06 -18.787271 0.0 -0.429711 -8.456043 2.555505 0.0 1e-06 1e-06 -15.923536 -20.094482 -5.473588 30.419218 -7.190829 1.735926 3e-06 -8.162927 1e-06 -1.861902 -22.861473 -6.16794 -0.0 -4e-06 -1e-06 176.514771 -3.100382 -10.284595 11.43229 0.01133 0.077852 -76.317772 -2.329754 -6.497422 -6.168968 1.526714 2.118686 -0.999998 0.0 0.0 -4.38311 -5.75924 -7.25844 14.673102 0.001543 -0.03393 -78.566277 -2.010745 -6.454147 -6.369059 0.788808 1.680048 -1.000002 0.0 0.0 
0.0 0.0 0.0 0.0 -0.0 0.0 1.569162 100.215492 0.774336 91.05304 0.015081 90.144745 -2.06071 -0.019129 -0.114147 -11.560268 -0.492921 -0.014872 15.992311 -0.419777 -2.25069 16.799406 -1.187826 2.716237 -2.429074 -0.757113 0.600094 -25.350555 -0.100655 0.302731 6e-06 0.0 -0.0 -0.022877 0.013388 -0.002003 0.026984 0.100699 0.016057 0.049188 -0.078943 -0.014613 -136.371201 -71.592987 153.311508 30.059256 -41.342308 25.447887 40.644634 0.307666 -0.025432 1.205464 -3.392208 12.723619 17.636633 -26.322733 52.411201 -19.46666 -14.395598 29.410393 -1e-06 -8.774822 -1e-06 15.900288 -18.040998 6.126978 -0.609776 -1.795653 -3.88933 -4.80709 -11.04681 -2.937848 5e-06 -20.976019 1e-06 -5.019969 -25.033562 -4.031882 6e-06 1e-06 -0.0 -10.634536 -5.686969 -3.565589 10.573276 -17.922951 -3.1139 2e-06 -13.82121 2e-06 -0.501778 -31.181505 -4.027011 -11.280165 -59.487602 7.02135 -13.982716 -7.150196 -2.875041 13.772732 -8.401493 -3.218243 0.347734 -34.211544 0.771657 -0.963031 -17.73337 2.621022 -1e-06 1e-06 1e-06 -17.34642 -20.095217 -4.201781 21.757561 -1.638376 3.866428 1e-06 -6.338824 1e-06 -1.697592 -22.591747 -6.194005 -0.0 -5e-06 -2e-06 42.221603 -76.626671 155.044312 34.632076 -49.658806 13.736191 36.098228 0.044928 0.079137 1.48591 -9.717156 29.675478 22.182116 -20.375912 49.933334 -16.701813 -16.743534 28.47654 -2e-06 -12.690603 0.0 16.025427 -17.797398 2.830124 -0.105919 -1.513856 -4.275883 -5.039042 -5.612873 -2.953556 3e-06 -11.020525 -0.0 -6.1113 -15.895334 -3.840469 0.0 0.0 1e-06 -10.283371 -5.680288 -4.34184 11.028296 -11.302408 -2.372632 -1.384271 -14.238583 -6.320121 -0.625439 -26.924194 -3.8276 -4.871009 -50.041607 -3.628526 -13.708524 -7.363476 -3.720941 18.14115 -14.05274 -3.242675 6e-06 -18.787271 1e-06 -0.429711 -8.456047 2.555504 0.0 0.0 1e-06 -15.923536 -20.094484 -5.473584 30.419214 -7.190825 1.735927 2e-06 -8.162929 1e-06 -1.861903 -22.861473 -6.16794 -1e-06 -4e-06 -2e-06 176.508591 -3.083316 -10.299921 11.459596 0.009515 0.086735 -76.318443 -2.308693 -6.521472 -6.151927 1.521659 2.118665 -0.999998 -1e-06 -0.0 -4.429323 -5.786727 -7.243486 14.77894 0.00463 -0.047394 -78.607162 -2.014178 -6.471099 -6.340624 0.779592 1.678165 -1.000002 0.0 -0.0 
0.0 0.0 0.0 0.0 -0.0 0.0 1.565077 100.208534 0.755994 91.067078 0.026023 90.159203 -2.062816 -0.040588 -0.107895 -11.568053 -0.489872 -0.02886 16.043705 -0.418112 -2.230506 16.803108 -1.165787 2.713968 -2.44786 -0.739262 0.595042 -25.390938 -0.101804 0.282194 6e-06 0.0 0.0 -0.021508 0.013698 -0.001857 0.021988 0.101628 0.017079 0.042604 -0.079114 -0.015665 -136.384399 -71.617981 153.378525 30.051958 -41.303741 25.458637 40.501896 0.296976 -0.012796 1.160002 -3.464774 12.74679 17.636625 -26.322721 52.411182 -19.46666 -14.395597 29.410385 -0.0 -8.774821 -3e-06 15.885434 -18.019827 6.132735 -0.609776 -1.795653 -3.889326 -4.80709 -11.046813 -2.937847 4e-06 -20.976015 -0.0 -5.019971 -25.03356 -4.031882 6e-06 -1e-06 2e-06 -10.634535 -5.686971 -3.565586 10.573272 -17.922951 -3.113901 2e-06 -13.821209 0.0 -0.501778 -31.181505 -4.027015 -11.283255 -59.451294 7.0184 -13.982714 -7.150198 -2.875042 13.772727 -8.401491 -3.218239 0.347734 -34.211544 0.771651 -0.96303 -17.733366 2.621018 -1e-06 1e-06 1e-06 -17.346418 -20.095219 -4.201779 21.757555 -1.638374 3.866428 1e-06 -6.338823 0.0 -1.697591 -22.591747 -6.194007 2e-06 -2e-06 -1e-06 42.227623 -76.58049 155.076202 34.392719 -49.659538 14.122506 36.013657 0.089994 0.094427 1.495777 -9.83935 29.879185 22.182121 -20.3759 49.933327 -16.701817 -16.74353 28.476532 -3e-06 -12.690601 -0.0 15.993271 -17.76967 2.860306 -0.105919 -1.513856 -4.275882 -5.039042 -5.612873 -2.953557 4e-06 -11.020526 -0.0 -6.111297 -15.895338 -3.840469 -1e-06 1e-06 1e-06 -10.283371 -5.680289 -4.34184 11.028297 -11.302408 -2.372632 -1.38427 -14.238583 -6.32012 -0.625438 -26.924194 -3.827602 -4.874827 -50.001263 -3.606762 -13.708527 -7.363474 -3.720939 18.14115 -14.05274 -3.242674 7e-06 -18.787271 -1e-06 -0.429711 -8.456048 2.555503 0.0 1e-06 1e-06 -15.923536 -20.094482 -5.473585 30.419214 -7.190827 1.735927 3e-06 -8.162929 0.0 -1.861904 -22.861479 -6.167942 1e-06 -7e-06 -2e-06 176.475113 -3.075469 -10.31423 11.521963 0.004007 0.084183 -76.319389 -2.272152 -6.520295 -6.132276 1.514015 2.115433 -0.999999 -0.0 0.0 -4.476005 -5.809847 -7.260541 14.880399 0.006911 -0.053992 -78.648628 -2.003015 -6.501705 -6.312902 0.777 1.678263 -1.000002 -0.0 0.0 
